<?xml version="1.0" encoding="UTF-8" standalone="no"?>
<!-- Created with Inkscape (http://www.inkscape.org/) -->

<svg
   width="121.6733mm"
   height="26.612846mm"
   viewBox="0 0 121.6733 26.612846"
   version="1.1"
   id="svg1"
   inkscape:export-filename="wellplanned.png"
   inkscape:export-xdpi="96"
   inkscape:export-ydpi="96"
   xmlns:inkscape="http://www.inkscape.org/namespaces/inkscape"
   xmlns:sodipodi="http://sodipodi.sourceforge.net/DTD/sodipodi-0.dtd"
   xmlns="http://www.w3.org/2000/svg"
   xmlns:svg="http://www.w3.org/2000/svg">
  <sodipodi:namedview
     id="namedview1"
     pagecolor="#ffffff"
     bordercolor="#666666"
     borderopacity="1.0"
     inkscape:showpageshadow="2"
     inkscape:pageopacity="0.0"
     inkscape:pagecheckerboard="0"
     inkscape:deskcolor="#d1d1d1"
     inkscape:document-units="mm" />
  <defs
     id="defs1" />
  <g
     inkscape:label="Layer 1"
     inkscape:groupmode="layer"
     id="layer1"
     transform="translate(-51.941541,-61.317114)">
    <path
       style="font-size:19.05px;line-height:1.25;font-family:Pacifico;-inkscape-font-specification:Pacifico;stroke-width:0.264583"
       d="m 71.99613,72.53615 q 0.297656,0.05581 0.539502,0.21394 0.251148,0.15813 0.427881,0.381372 0.176733,0.223243 0.269751,0.502295 0.102319,0.279053 0.102319,0.576709 0,0.353467 -0.130224,0.660425 -0.130225,0.297656 -0.362769,0.5302 -0.223242,0.223242 -0.5302,0.353467 -0.306958,0.130225 -0.651123,0.130225 h -2.334741 v 0.660424 q 0,0.418579 -0.15813,0.781348 -0.15813,0.362768 -0.437183,0.641821 -0.269751,0.269751 -0.632519,0.427881 -0.362769,0.15813 -0.781348,0.15813 -0.446484,0 -0.855761,-0.195337 -0.399976,-0.195337 -0.68833,-0.539502 -0.223243,0.567407 -0.613916,0.920874 -0.381373,0.353467 -0.939478,0.595313 l -8.697143,3.739306 q -0.204639,0.08372 -0.455786,0.120923 -0.241846,0.03721 -0.455786,0.03721 -0.539502,0 -1.023194,-0.204639 -0.483691,-0.204638 -0.855761,-0.567407 -0.362769,-0.353467 -0.576709,-0.827856 -0.213941,-0.47439 -0.213941,-1.023194 0,-0.260449 0.04651,-0.511596 0.04651,-0.251148 0.148828,-0.492993 l 3.7021,-8.650635 q 0.139526,-0.325561 0.306958,-0.586011 0.176733,-0.269751 0.446484,-0.511596 -0.409277,0 -0.772046,-0.15813 -0.353467,-0.167432 -0.623218,-0.437183 -0.269751,-0.269751 -0.427881,-0.632519 -0.148828,-0.362769 -0.148828,-0.772046 0,-0.418579 0.15813,-0.781348 0.15813,-0.362768 0.427881,-0.632519 0.269751,-0.279053 0.63252,-0.437183 0.362768,-0.15813 0.781347,-0.15813 h 0.669727 v -0.334863 q 0,-0.437183 0.15813,-0.827856 0.158129,-0.399976 0.42788,-0.706934 0.269751,-0.31626 0.641822,-0.520898 0.37207,-0.204639 0.809253,-0.26045 0.05581,-0.288354 0.204638,-0.539502 0.148828,-0.251147 0.362769,-0.42788 0.223242,-0.186036 0.492993,-0.288355 0.279053,-0.102319 0.576709,-0.102319 0.344165,0 0.651123,0.130224 0.306958,0.130225 0.5302,0.362769 0.232544,0.223242 0.362769,0.5302 0.130224,0.306958 0.130224,0.651123 v 1.00459 h 0.669727 q 0.418579,0 0.781347,0.15813 0.362769,0.15813 0.63252,0.427881 0.269751,0.269751 0.427881,0.632519 0.15813,0.362769 0.15813,0.781348 0,0.520898 -0.241846,0.976684 -0.241846,0.446485 -0.68833,0.716236 0.148828,0.269751 0.223242,0.558105 0.63252,-0.167432 1.274341,-0.204639 0.641821,-0.03721 1.292944,-0.03721 0.288355,-0.316259 0.669727,-0.492993 0.390673,-0.176733 0.818554,-0.176733 0.418579,0 0.781348,0.15813 0.362768,0.15813 0.623218,0.437182 0.269751,0.269751 0.427881,0.63252 0.158129,0.362768 0.167431,0.781347 0.0093,0.167432 0.0093,0.334864 0,0.15813 0,0.325561 0.306958,0.120923 0.5302,0.334864 0.232544,0.21394 0.399976,0.483691 0.167431,0.269751 0.260449,0.576709 0.102319,0.306958 0.139526,0.613916 z m -18.715136,8.073925 q 0,0.269751 0.111621,0.502295 0.111621,0.241846 0.288355,0.409278 0.186035,0.176733 0.427881,0.269751 0.241845,0.102319 0.511596,0.102319 0.10232,0 0.213941,-0.0186 0.111621,-0.0093 0.204638,-0.04651 l 8.697144,-3.730005 q 0.418579,-0.176734 0.660424,-0.483692 0.251148,-0.316259 0.251148,-0.790649 0,-0.269751 -0.111621,-0.511597 -0.10232,-0.241845 -0.288355,-0.42788 L 59.299231,70.93625 q -0.204638,-0.204639 -0.427881,-0.297657 -0.21394,-0.102319 -0.511596,-0.102319 -0.47439,0 -0.781348,0.241846 -0.306958,0.241845 -0.492993,0.669726 l -3.720703,8.67854 Q 53.3182,80.238007 53.2996,80.35893 53.281,80.479853 53.281,80.610077 Z m 18.147729,-6.046142 q 0.09302,0 0.186035,-0.0093 0.10232,-0.0093 0.186035,-0.04651 0.08372,-0.03721 0.139527,-0.102319 0.05581,-0.07441 0.05581,-0.195337 0,-0.21394 -0.148828,-0.279053 -0.148828,-0.06511 -0.334863,-0.06511 -0.102319,0 -0.204639,0.0093 -0.09302,0.0093 -0.167431,0.0093 -0.325562,0 -0.41858,-0.130225 -0.08371,-0.130225 -0.08371,-0.344165 0,-0.120923 0.0093,-0.251147 0.0093,-0.130225 0.0093,-0.288355 0,-0.204639 -0.08372,-0.381372 -0.07441,-0.186035 -0.21394,-0.325561 -0.130225,-0.139527 -0.31626,-0.213941 -0.176733,-0.08372 -0.381372,-0.08372 -0.204639,0 -0.390674,0.08372 -0.176733,0.07441 -0.316259,0.213941 -0.139527,0.139526 -0.223243,0.325561 -0.07441,0.176733 -0.07441,0.381372 0,0.111621 0.0093,0.223242 0.0093,0.10232 0.0093,0.213941 0,0.09302 -0.0093,0.195337 -0.0093,0.09302 -0.04651,0.176733 -0.03721,0.08372 -0.111621,0.139526 -0.06511,0.05581 -0.186035,0.05581 -0.120923,0 -0.195337,-0.05581 -0.06511,-0.05581 -0.102319,-0.139526 -0.03721,-0.08372 -0.04651,-0.176733 -0.0093,-0.10232 -0.0093,-0.195337 0,-0.111621 0.0093,-0.213941 0.0093,-0.111621 0.0093,-0.223242 0,-0.204639 -0.08372,-0.381372 -0.07441,-0.186035 -0.21394,-0.325561 -0.139527,-0.139527 -0.325562,-0.213941 -0.176733,-0.08372 -0.381372,-0.08372 -0.204639,0 -0.390674,0.08372 -0.176733,0.07441 -0.31626,0.213941 -0.139526,0.139526 -0.223242,0.325561 -0.07441,0.176733 -0.07441,0.381372 v 0.669727 q 0,0.223242 -0.167431,0.288354 -0.15813,0.05581 -0.353467,0.05581 -0.08372,0 -0.167432,0 -0.07441,-0.0093 -0.139526,-0.0093 -0.09302,0 -0.186035,0.0093 -0.08372,0.0093 -0.15813,0.04651 -0.06511,0.02791 -0.111621,0.10232 -0.04651,0.06511 -0.04651,0.176733 0,0.223242 0.176733,0.288355 0.176734,0.06511 0.390674,0.06511 0.130225,0 0.241846,-0.0093 0.111621,-0.0093 0.186035,-0.0093 0.204639,0 0.381372,-0.07441 0.186035,-0.08371 0.325561,-0.223242 0.139527,-0.139526 0.213941,-0.31626 0.08372,-0.186035 0.08372,-0.390673 0,-0.111621 -0.0093,-0.213941 -0.0093,-0.111621 -0.0093,-0.223242 0,-0.09302 0.0093,-0.186035 0.0093,-0.102319 0.04651,-0.186035 0.03721,-0.08372 0.102319,-0.139527 0.07441,-0.05581 0.195337,-0.05581 0.120923,0 0.186035,0.05581 0.07441,0.05581 0.111621,0.139527 0.03721,0.08372 0.04651,0.186035 0.0093,0.09302 0.0093,0.186035 0,0.111621 -0.0093,0.223242 -0.0093,0.10232 -0.0093,0.213941 0,0.204638 0.07441,0.390673 0.08372,0.176734 0.223242,0.31626 0.139527,0.139527 0.31626,0.223242 0.186035,0.07441 0.390674,0.07441 0.204639,0 0.381372,-0.07441 0.186035,-0.08371 0.325562,-0.223242 0.139526,-0.139526 0.21394,-0.31626 0.08372,-0.186035 0.08372,-0.390673 0,-0.111621 -0.0093,-0.213941 -0.0093,-0.111621 -0.0093,-0.223242 0,-0.09302 0.0093,-0.186035 0.0093,-0.102319 0.04651,-0.186035 0.03721,-0.08372 0.102319,-0.139527 0.07441,-0.05581 0.195337,-0.05581 0.213941,0 0.279053,0.176733 0.06511,0.167432 0.06511,0.381372 0,0.130225 -0.0093,0.251148 -0.0093,0.111621 -0.0093,0.195337 0,0.334863 0.120922,0.539502 0.130225,0.204638 0.325562,0.316259 0.204639,0.10232 0.465088,0.139527 0.260449,0.02791 0.5302,0.02791 z m -12.799218,-9.05061 q 0,0.21394 0.07441,0.399976 0.08372,0.176733 0.21394,0.316259 0.139527,0.130225 0.31626,0.213941 0.186035,0.07441 0.399976,0.07441 0.102319,0 0.21394,-0.0093 0.111621,-0.0093 0.21394,-0.0093 0.09302,0 0.186036,0.0093 0.102319,0.0093 0.186035,0.04651 0.08372,0.03721 0.139526,0.111621 0.05581,0.06511 0.05581,0.186035 0,0.120923 -0.05581,0.195337 -0.05581,0.06511 -0.139526,0.102319 -0.08372,0.03721 -0.186035,0.04651 -0.09302,0.0093 -0.186036,0.0093 -0.102319,0 -0.21394,-0.0093 -0.111621,-0.0093 -0.21394,-0.0093 -0.213941,0 -0.399976,0.08372 -0.176733,0.07441 -0.31626,0.213941 -0.130224,0.130224 -0.21394,0.316259 -0.07441,0.186035 -0.07441,0.390674 0,0.204639 0.07441,0.390674 0.08372,0.176733 0.223242,0.31626 0.139526,0.139526 0.31626,0.223242 0.186035,0.07441 0.390674,0.07441 h 0.660424 q 0.223243,0 0.279053,0.167432 0.06511,0.158129 0.06511,0.353466 0,0.08372 -0.0093,0.167432 0,0.07441 0,0.139526 0,0.09302 0.0093,0.186036 0.0093,0.08371 0.03721,0.158129 0.03721,0.06511 0.10232,0.111621 0.07441,0.04651 0.186035,0.04651 0.223242,0 0.288354,-0.176733 0.06511,-0.176734 0.06511,-0.390674 0,-0.130225 -0.0093,-0.241846 -0.0093,-0.111621 -0.0093,-0.186035 0,-0.204638 -0.08372,-0.390674 -0.07441,-0.186035 -0.21394,-0.316259 -0.130225,-0.139527 -0.31626,-0.213941 -0.186035,-0.08372 -0.390674,-0.08372 -0.102319,0 -0.21394,0.0093 -0.111621,0.0093 -0.21394,0.0093 -0.09302,0 -0.195337,-0.0093 -0.10232,-0.0093 -0.186036,-0.04651 -0.08372,-0.03721 -0.139526,-0.102319 -0.04651,-0.07441 -0.04651,-0.195337 0,-0.120923 0.04651,-0.186035 0.05581,-0.07441 0.139526,-0.111621 0.08372,-0.03721 0.186036,-0.04651 0.102319,-0.0093 0.195337,-0.0093 0.102319,0 0.21394,0.0093 0.111621,0.0093 0.21394,0.0093 0.204639,0 0.390674,-0.07441 0.186035,-0.08372 0.31626,-0.213941 0.139526,-0.139526 0.21394,-0.316259 0.08372,-0.186036 0.08372,-0.399976 0,-0.204639 -0.08372,-0.381372 -0.07441,-0.186035 -0.21394,-0.325561 -0.139526,-0.139527 -0.325562,-0.213941 -0.176733,-0.08372 -0.381372,-0.08372 -0.102319,0 -0.21394,0.0093 -0.111621,0.0093 -0.21394,0.0093 -0.09302,0 -0.195337,-0.0093 -0.10232,-0.0093 -0.186036,-0.04651 -0.08372,-0.03721 -0.139526,-0.102319 -0.04651,-0.07441 -0.04651,-0.195337 0,-0.223242 0.186035,-0.288354 0.186036,-0.06511 0.399976,-0.06511 0.120923,0 0.223242,0.0093 0.111621,0.0093 0.186035,0.0093 0.334864,0 0.539502,-0.120923 0.204639,-0.120923 0.306958,-0.31626 0.111621,-0.204639 0.139527,-0.465088 0.03721,-0.260449 0.03721,-0.5302 0,-0.09302 -0.0093,-0.186035 -0.0093,-0.102319 -0.04651,-0.186035 -0.03721,-0.08372 -0.111621,-0.139527 -0.06511,-0.05581 -0.186035,-0.05581 -0.213941,0 -0.279053,0.148828 -0.06511,0.148828 -0.06511,0.334863 0,0.10232 0.0093,0.204639 0.0093,0.102319 0.0093,0.176733 0,0.186035 -0.06511,0.334864 -0.05581,0.139526 -0.279053,0.139526 h -0.660424 q -0.204639,0 -0.390674,0.08372 -0.176734,0.07441 -0.31626,0.204638 -0.139526,0.130225 -0.223242,0.31626 -0.07441,0.186035 -0.07441,0.390674 z m 7.683251,4.353222 q -0.697631,0 -1.358056,0.195337 -0.660425,0.186036 -1.237134,0.539502 -0.576709,0.344165 -1.051098,0.84646 -0.47439,0.502295 -0.799952,1.116211 l 0.502295,0.492993 q 0.260449,-0.576709 0.669727,-1.041797 0.418579,-0.465087 0.930176,-0.790649 0.520898,-0.334863 1.11621,-0.511597 0.595313,-0.186035 1.227832,-0.186035 0.139527,0 0.232544,-0.09302 0.10232,-0.10232 0.10232,-0.241846 0,-0.130225 -0.10232,-0.223242 -0.102319,-0.10232 -0.232544,-0.10232 z M 55.950599,67.857366 q 0,0.279053 0.195337,0.47439 0.195336,0.195336 0.474389,0.195336 0.279053,0 0.47439,-0.195336 0.195337,-0.195337 0.195337,-0.47439 0,-0.279053 -0.195337,-0.47439 -0.195337,-0.195337 -0.47439,-0.195337 -0.279053,0 -0.474389,0.195337 -0.195337,0.195337 -0.195337,0.47439 z m 7.35769,-2.00918 q -0.279053,0 -0.47439,0.195337 -0.195337,0.195337 -0.195337,0.47439 0,0.279053 0.195337,0.474389 0.195337,0.195337 0.47439,0.195337 0.279053,0 0.474389,-0.195337 0.195337,-0.195336 0.195337,-0.474389 0,-0.279053 -0.195337,-0.47439 -0.195336,-0.195337 -0.474389,-0.195337 z m -4.678784,8.697143 q -0.279053,0 -0.47439,-0.195336 -0.195337,-0.195337 -0.195337,-0.47439 0,-0.279053 0.195337,-0.47439 0.195337,-0.195337 0.47439,-0.195337 0.269751,0 0.465088,0.204639 0.204638,0.195337 0.204638,0.465088 0,0.269751 -0.204638,0.47439 -0.195337,0.195336 -0.465088,0.195336 z m 4.009057,-6.018237 q -0.279052,0 -0.474389,0.195337 -0.195337,0.195337 -0.195337,0.47439 0,0.269751 0.195337,0.47439 0.204638,0.195336 0.474389,0.195336 0.269751,0 0.465088,-0.195336 0.204639,-0.204639 0.204639,-0.47439 0,-0.279053 -0.195337,-0.47439 -0.195337,-0.195337 -0.47439,-0.195337 z m 4.678784,8.687842 q 0.279053,0 0.47439,-0.195337 0.195337,-0.195337 0.195337,-0.47439 0,-0.269751 -0.204639,-0.465088 -0.195337,-0.195336 -0.465088,-0.195336 -0.269751,0 -0.474389,0.195336 -0.195337,0.195337 -0.195337,0.465088 0,0.279053 0.195337,0.47439 0.195337,0.195337 0.474389,0.195337 z m 1.339453,-8.018115 q -0.279052,0 -0.474389,0.195337 -0.195337,0.195337 -0.195337,0.474389 0,0.269751 0.195337,0.465088 0.204638,0.195337 0.474389,0.195337 0.269751,0 0.465088,-0.195337 0.204639,-0.195337 0.204639,-0.465088 0,-0.279052 -0.195337,-0.474389 -0.195337,-0.195337 -0.47439,-0.195337 z m -8.027416,8.018115 q -0.269751,0 -0.47439,-0.195337 -0.195337,-0.204639 -0.195337,-0.47439 0,-0.269751 0.195337,-0.465088 0.204639,-0.195336 0.47439,-0.195336 0.269751,0 0.465088,0.195336 0.204638,0.195337 0.204638,0.465088 0,0.279053 -0.195337,0.47439 -0.195337,0.195337 -0.474389,0.195337 z m 30.21315,-3.78202 q 0.05715,-0.01905 0.1905,-0.01905 0.285749,0 0.438149,0.1905 0.1524,0.1905 0.1524,0.51435 0,0.59055 -0.2286,0.93345 -0.2286,0.32385 -0.685799,0.47625 -0.8763,0.28575 -1.8669,0.28575 -0.8382,0 -1.58115,-0.2286 -0.55245,0.89535 -1.2192,1.84785 -0.762,1.085849 -1.31445,1.485899 -0.5334,0.40005 -1.2192,0.40005 -0.762,0 -1.16205,-0.59055 -0.381,-0.590549 -0.47625,-1.943099 l -0.09525,-1.39065 q -0.59055,1.6002 -1.0668,2.4384 -0.4572,0.838199 -0.93345,1.162049 -0.4572,0.32385 -1.08585,0.32385 -0.78105,0 -1.23825,-0.6096 -0.43815,-0.609599 -0.55245,-1.924049 -0.2286,-2.667 -0.2286,-4.66725 v -0.66675 q 0.01905,-0.62865 0.3429,-0.8763 0.32385,-0.24765 0.97155,-0.24765 0.4953,0 0.7239,0.2286 0.24765,0.20955 0.24765,0.7239 0,2.19075 0.2667,5.69595 1.2954,-2.72415 2.38125,-5.6769 0.20955,-0.5715 0.4953,-0.762 0.3048,-0.20955 0.7239,-0.20955 0.51435,0 0.70485,0.20955 0.20955,0.20955 0.20955,0.74295 0,2.19075 0.2667,5.69595 1.143,-1.69545 1.7145,-2.7051 -0.28575,-0.55245 -0.28575,-1.31445 0,-0.6477 0.28575,-1.2573 0.28575,-0.6096 0.78105,-0.9906 0.4953,-0.381 1.12395,-0.381 0.55245,0 0.89535,0.40005 0.3429,0.381 0.3429,1.12395 0,0.85725 -0.4572,1.96215 0.7239,-0.0381 1.92405,-0.28575 z m 7.620012,1.54305 q 0.24765,0 0.381,0.2286 0.1524,0.2286 0.1524,0.62865 0,0.762 -0.36195,1.1811 -0.70485,0.85725 -2.00025,1.581149 -1.27635,0.7239 -2.7432,0.7239 -2.00025,0 -3.10515,-1.085849 -1.104899,-1.08585 -1.104899,-2.9718 0,-1.31445 0.55245,-2.4384 0.552449,-1.143 1.523999,-1.80975 0.9906,-0.66675 2.22885,-0.66675 1.1049,0 1.77165,0.66675 0.66675,0.6477 0.66675,1.77165 0,1.31445 -0.9525,2.26695 -0.93345,0.93345 -3.18135,1.4859 0.47625,0.8763 1.80975,0.8763 0.85725,0 1.9431,-0.59055 1.1049,-0.6096 1.905,-1.58115 0.2286,-0.2667 0.51435,-0.2667 z m -4.8006,-2.76225 q -0.70485,0 -1.20015,0.81915 -0.47625,0.81915 -0.47625,1.9812 v 0.0381 q 1.12395,-0.2667 1.77165,-0.8001 0.6477,-0.5334 0.6477,-1.23825 0,-0.36195 -0.20955,-0.5715 -0.1905,-0.2286 -0.5334,-0.2286 z m 11.010895,2.76225 q 0.24765,0 0.381,0.2286 0.1524,0.2286 0.1524,0.62865 0,0.762 -0.36195,1.1811 -0.81915,1.00965 -1.7907,1.657349 -0.9525,0.6477 -2.1717,0.6477 -1.6764,0 -2.49555,-1.523999 -0.8001,-1.524 -0.8001,-3.94335 0,-2.3241 0.59055,-5.2959 0.6096,-2.9718 1.77165,-5.1054 1.1811,-2.1336 2.80035,-2.1336 0.9144,0 1.42875,0.85725 0.5334,0.8382 0.5334,2.41935 0,2.26695 -1.2573,5.2578 -1.2573,2.99085 -3.40995,5.92455 0.13335,0.78105 0.43815,1.12395 0.3048,0.32385 0.8001,0.32385 0.78105,0 1.3716,-0.43815 0.59055,-0.4572 1.50495,-1.54305 0.2286,-0.2667 0.51435,-0.2667 z m -2.34315,-11.7729 q -0.43815,0 -0.9906,1.58115 -0.55245,1.58115 -0.97155,3.9243 -0.4191,2.34315 -0.4572,4.4958 1.35255,-2.22885 2.15265,-4.4577 0.8001,-2.2479 0.8001,-4.09575 0,-1.4478 -0.5334,-1.4478 z m 8.55345,11.7729 q 0.24765,0 0.381,0.2286 0.1524,0.2286 0.1524,0.62865 0,0.762 -0.36195,1.1811 -0.81915,1.00965 -1.7907,1.657349 -0.9525,0.6477 -2.1717,0.6477 -1.6764,0 -2.49555,-1.523999 -0.8001,-1.524 -0.8001,-3.94335 0,-2.3241 0.59055,-5.2959 0.6096,-2.9718 1.77165,-5.1054 1.1811,-2.1336 2.80035,-2.1336 0.9144,0 1.42875,0.85725 0.5334,0.8382 0.5334,2.41935 0,2.26695 -1.2573,5.2578 -1.2573,2.99085 -3.40995,5.92455 0.13335,0.78105 0.43815,1.12395 0.3048,0.32385 0.8001,0.32385 0.78105,0 1.3716,-0.43815 0.59055,-0.4572 1.50495,-1.54305 0.2286,-0.2667 0.51435,-0.2667 z m -2.34315,-11.7729 q -0.43815,0 -0.9906,1.58115 -0.55245,1.58115 -0.97155,3.9243 -0.4191,2.34315 -0.4572,4.4958 1.35255,-2.22885 2.15265,-4.4577 0.8001,-2.2479 0.8001,-4.09575 0,-1.4478 -0.5334,-1.4478 z m 11.50621,11.7729 q 0.24765,0 0.381,0.2286 0.1524,0.2286 0.1524,0.62865 0,0.762 -0.36195,1.1811 -0.81915,1.00965 -1.77165,1.657349 -0.93345,0.6477 -2.1336,0.6477 -1.00965,0 -1.6383,-0.7239 -1.08585,0.70485 -2.26695,0.7239 -0.24765,3.67665 -1.12395,6.1341 -0.8763,2.4765 -2.57175,2.4765 -1.0287,0 -1.524,-0.74295 -0.4953,-0.74295 -0.4953,-2.0574 0,-1.8669 0.85725,-4.36245 0.85725,-2.476499 2.64795,-5.467349 0,-2.7813 -0.0381,-3.86715 -0.0191,-0.55245 0.43815,-0.8763 0.4572,-0.32385 1.143,-0.32385 0.40005,0 0.5715,0.17145 0.1905,0.1524 0.20955,0.62865 0,0.47625 0.019,0.70485 0.6096,-0.762 1.20015,-1.08585 0.59055,-0.3429 1.2573,-0.3429 1.0668,0 1.73355,0.85725 0.6858,0.85725 0.6858,2.2479 0,1.00965 -0.32385,1.96215 -0.32385,0.9525 -0.89535,1.73355 0.40005,0.1143 0.66675,0.1143 0.62865,0 1.20015,-0.4572 0.5715,-0.4572 1.46685,-1.524 0.2286,-0.2667 0.51435,-0.2667 z m -7.5438,2.5146 q 0.6858,-0.1524 1.2573,-0.74295 0.59055,-0.6096 0.93345,-1.4859 0.3429,-0.89535 0.3429,-1.8669 0,-0.5715 -0.2286,-0.85725 -0.2286,-0.3048 -0.6096,-0.3048 -0.6858,0 -1.65735,1.4478 -0.019,0.8382 -0.019,2.45745 0,0.8763 -0.0191,1.35255 z m -3.63855,8.572499 q 0.51435,0 0.85725,-2.2479 0.3429,-2.22885 0.43815,-5.562599 -0.81915,1.904999 -1.2954,3.638549 -0.47625,1.73355 -0.47625,2.91465 0,0.6096 0.1524,0.93345 0.13335,0.32385 0.32385,0.32385 z m 17.39267,-11.087099 q 0.24765,0 0.381,0.2286 0.1524,0.2286 0.1524,0.62865 0,0.762 -0.36195,1.1811 -0.81915,1.00965 -1.7907,1.657349 -0.9525,0.6477 -2.1717,0.6477 -1.6764,0 -2.49555,-1.523999 -0.8001,-1.524 -0.8001,-3.94335 0,-2.3241 0.59055,-5.2959 0.6096,-2.9718 1.77165,-5.1054 1.1811,-2.1336 2.80035,-2.1336 0.9144,0 1.42875,0.85725 0.5334,0.8382 0.5334,2.41935 0,2.26695 -1.2573,5.2578 -1.2573,2.99085 -3.40995,5.92455 0.13335,0.78105 0.43815,1.12395 0.3048,0.32385 0.8001,0.32385 0.78105,0 1.3716,-0.43815 0.59055,-0.4572 1.50495,-1.54305 0.2286,-0.2667 0.51435,-0.2667 z m -2.34315,-11.7729 q -0.43815,0 -0.9906,1.58115 -0.55245,1.58115 -0.97155,3.9243 -0.4191,2.34315 -0.4572,4.4958 1.35255,-2.22885 2.15265,-4.4577 0.8001,-2.2479 0.8001,-4.09575 0,-1.4478 -0.5334,-1.4478 z m 3.48614,16.116299 q -1.1811,0 -1.88595,-0.85725 -0.70485,-0.857249 -0.70485,-2.247899 0,-1.524 0.70485,-2.87655 0.70485,-1.3716 1.8669,-2.19075 1.1811,-0.8382 2.49555,-0.8382 0.4191,0 0.55245,0.17145 0.1524,0.1524 0.24765,0.5715 0.40005,-0.0762 0.8382,-0.0762 0.93345,0 0.93345,0.66675 0,0.40005 -0.28575,1.905 -0.43815,2.19075 -0.43815,3.048 0,0.28575 0.13335,0.4572 0.1524,0.17145 0.381,0.17145 0.36195,0 0.8763,-0.4572 0.51435,-0.47625 1.39065,-1.524 0.2286,-0.2667 0.51435,-0.2667 0.24765,0 0.381,0.2286 0.1524,0.2286 0.1524,0.62865 0,0.762 -0.36195,1.1811 -0.78105,0.97155 -1.65735,1.638299 -0.8763,0.66675 -1.69545,0.66675 -0.62865,0 -1.16205,-0.4191 -0.51435,-0.43815 -0.78105,-1.181099 -0.9906,1.600199 -2.49555,1.600199 z m 0.6858,-1.924049 q 0.4191,0 0.8001,-0.4953 0.381,-0.4953 0.55245,-1.31445 l 0.70485,-3.5052 q -0.8001,0.01905 -1.4859,0.6096 -0.66675,0.5715 -1.0668,1.524 -0.40005,0.9525 -0.40005,2.0193 0,0.59055 0.2286,0.8763 0.24765,0.28575 0.66675,0.28575 z m 7.27709,1.924049 q -0.7239,0 -1.0287,-0.762 -0.28575,-0.761999 -0.28575,-2.438399 0,-2.4765 0.70485,-4.70535 0.17145,-0.55245 0.55245,-0.8001 0.40005,-0.2667 1.1049,-0.2667 0.381,0 0.5334,0.09525 0.1524,0.09525 0.1524,0.36195 0,0.3048 -0.28575,1.3716 -0.1905,0.762 -0.3048,1.3335 -0.1143,0.5715 -0.1905,1.4097 0.62865,-1.6383 1.4097,-2.667 0.78105,-1.0287 1.524,-1.46685 0.762,-0.43815 1.39065,-0.43815 1.23825,0 1.23825,1.23825 0,0.74295 -0.4191,2.68605 -0.36195,1.65735 -0.36195,2.19075 0,0.762 0.55245,0.762 0.381,0 0.89535,-0.4572 0.5334,-0.47625 1.4097,-1.524 0.2286,-0.2667 0.51435,-0.2667 0.24765,0 0.381,0.2286 0.1524,0.2286 0.1524,0.62865 0,0.762 -0.36195,1.1811 -0.81915,1.00965 -1.77165,1.657349 -0.93345,0.6477 -2.1336,0.6477 -0.97155,0 -1.46685,-0.55245 -0.4953,-0.571499 -0.4953,-1.638299 0,-0.5334 0.2667,-1.905 0.24765,-1.20015 0.24765,-1.65735 0,-0.3048 -0.20955,-0.3048 -0.24765,0 -0.70485,0.6477 -0.43815,0.62865 -0.9144,1.6764 -0.4572,1.04775 -0.74295,2.2098 -0.20955,0.895349 -0.4953,1.219199 -0.2667,0.3048 -0.85725,0.3048 z m 9.4488,0 q -0.7239,0 -1.0287,-0.762 -0.28575,-0.761999 -0.28575,-2.438399 0,-2.4765 0.70485,-4.70535 0.17145,-0.55245 0.55245,-0.8001 0.40005,-0.2667 1.1049,-0.2667 0.381,0 0.5334,0.09525 0.1524,0.09525 0.1524,0.36195 0,0.3048 -0.28575,1.3716 -0.1905,0.762 -0.3048,1.3335 -0.1143,0.5715 -0.1905,1.4097 0.62865,-1.6383 1.4097,-2.667 0.78105,-1.0287 1.524,-1.46685 0.762,-0.43815 1.39065,-0.43815 1.23825,0 1.23825,1.23825 0,0.74295 -0.4191,2.68605 -0.36195,1.65735 -0.36195,2.19075 0,0.762 0.55245,0.762 0.381,0 0.89535,-0.4572 0.5334,-0.47625 1.4097,-1.524 0.2286,-0.2667 0.51435,-0.2667 0.24765,0 0.381,0.2286 0.1524,0.2286 0.1524,0.62865 0,0.762 -0.36195,1.1811 -0.81915,1.00965 -1.77165,1.657349 -0.93345,0.6477 -2.1336,0.6477 -0.97155,0 -1.46685,-0.55245 -0.4953,-0.571499 -0.4953,-1.638299 0,-0.5334 0.2667,-1.905 0.24765,-1.20015 0.24765,-1.65735 0,-0.3048 -0.20955,-0.3048 -0.24765,0 -0.70485,0.6477 -0.43815,0.62865 -0.9144,1.6764 -0.4572,1.04775 -0.74295,2.2098 -0.20955,0.895349 -0.4953,1.219199 -0.2667,0.3048 -0.85725,0.3048 z m 16.59256,-4.343399 q 0.24765,0 0.381,0.2286 0.1524,0.2286 0.1524,0.62865 0,0.762 -0.36195,1.1811 -0.70485,0.85725 -2.00025,1.581149 -1.27635,0.7239 -2.7432,0.7239 -2.00025,0 -3.10515,-1.085849 -1.1049,-1.08585 -1.1049,-2.9718 0,-1.31445 0.55245,-2.4384 0.55245,-1.143 1.524,-1.80975 0.9906,-0.66675 2.22885,-0.66675 1.1049,0 1.77165,0.66675 0.66675,0.6477 0.66675,1.77165 0,1.31445 -0.9525,2.26695 -0.93345,0.93345 -3.18135,1.4859 0.47625,0.8763 1.80975,0.8763 0.85725,0 1.9431,-0.59055 1.1049,-0.6096 1.905,-1.58115 0.2286,-0.2667 0.51435,-0.2667 z m -4.8006,-2.76225 q -0.70485,0 -1.20015,0.81915 -0.47625,0.81915 -0.47625,1.9812 v 0.0381 q 1.12395,-0.2667 1.77165,-0.8001 0.6477,-0.5334 0.6477,-1.23825 0,-0.36195 -0.20955,-0.5715 -0.1905,-0.2286 -0.5334,-0.2286 z m 10.62991,2.76225 q 0.20955,1.5621 0.6096,3.0861 0.0762,0.24765 0.0762,0.514349 0,0.85725 -1.04775,0.85725 -0.59055,0 -0.9144,-0.32385 -0.3048,-0.32385 -0.5715,-1.219199 l -0.019,-0.0762 q -0.7239,0.895349 -1.31445,1.200149 -0.5715,0.3048 -1.3335,0.3048 -1.16205,0 -1.92405,-0.85725 -0.74295,-0.876299 -0.74295,-2.266949 0,-1.524 0.6477,-2.8194 0.6477,-1.2954 1.77165,-2.11455 1.12395,-0.8382 2.5146,-1.00965 0.36195,-3.60045 1.3716,-6.26745 1.0287,-2.667 2.72415,-2.667 0.81915,0 1.35255,0.74295 0.55245,0.74295 0.55245,2.2479 0,2.0955 -1.0287,4.89585 -1.0287,2.80035 -2.72415,5.77215 z m 1.6383,-11.79195 q -0.55245,0 -1.04775,2.8194 -0.47625,2.8194 -0.6477,6.1341 2.11455,-4.572 2.11455,-7.4295 0,-0.7239 -0.13335,-1.12395 -0.1143,-0.40005 -0.28575,-0.40005 z m -5.4864,14.2113 q 0.381,0 0.7239,-0.28575 0.36195,-0.28575 0.9144,-1.1049 -0.1905,-1.39065 -0.1905,-2.87655 0,-0.59055 0.019,-0.9144 -1.04775,0.3048 -1.73355,1.39065 -0.6858,1.08585 -0.6858,2.4003 0,1.39065 0.9525,1.39065 z m 8.38202,1.924049 q -0.8382,0 -1.27635,-0.4572 -0.4191,-0.4572 -0.4191,-1.200149 0,-0.85725 0.47625,-1.3716 0.4953,-0.51435 1.3716,-0.51435 0.8382,0 1.2573,0.4191 0.43815,0.40005 0.43815,1.20015 0,0.8763 -0.4953,1.409699 -0.4953,0.51435 -1.35255,0.51435 z"
       id="text1"
       aria-label="🎉wellplanned." />
  </g>
</svg>
